<svg id="visual" viewBox="0 0 1200 1100" width="1200" height="1100" xmlns="http://www.w3.org/2000/svg" xmlns:xlink="http://www.w3.org/1999/xlink" version="1.1"><g transform="translate(601.2339370381264 512.8787976442302)"><path d="M365.4 -435.2C436.1 -376.1 430.3 -225.4 455.6 -80.5C481 64.4 537.5 203.7 501.6 311.9C465.7 420.1 337.3 497.1 206.2 528.3C75 559.4 -58.9 544.7 -187 502.8C-315.1 461 -437.3 392 -486.5 289.3C-535.8 186.6 -512.1 50.2 -491.7 -90.4C-471.3 -231.1 -454.2 -376 -372.8 -433.2C-291.4 -490.5 -145.7 -460.1 0.8 -461.1C147.3 -462 294.6 -494.3 365.4 -435.2" fill="#715DF2"></path></g></svg>